<svg width="79" height="54" viewBox="0 0 79 54" fill="none" xmlns="http://www.w3.org/2000/svg">
<path d="M0.67749 20.544C0.67749 17.216 1.18949 14.272 2.21349 11.712C3.28016 9.152 4.70949 7.01866 6.50149 5.312C8.33616 3.56267 10.4695 2.24 12.9015 1.344C15.3762 0.447999 18.0428 0 20.9015 0C23.7602 0 26.4055 0.447999 28.8375 1.344C31.3122 2.24 33.4668 3.56267 35.3015 5.312C37.1362 7.01866 38.5655 9.152 39.5895 11.712C40.6562 14.272 41.1895 17.216 41.1895 20.544C41.1895 24.7253 40.4215 28.288 38.8855 31.232C37.3495 34.1333 35.2588 36.416 32.6135 38.08C33.2535 38.3787 34.0002 38.6987 34.8535 39.04C35.7495 39.3813 36.6668 39.7227 37.6055 40.064C38.5868 40.4053 39.5895 40.7253 40.6135 41.024C41.6375 41.3653 42.5975 41.664 43.4935 41.92C43.5362 42.176 43.5575 42.3893 43.5575 42.56C43.5575 42.7733 43.5575 42.9653 43.5575 43.136C43.5575 45.568 42.9175 47.3387 41.6375 48.448C40.4002 49.5573 38.7575 50.112 36.7095 50.112C34.7468 50.112 32.7202 49.5573 30.6295 48.448C28.5388 47.3813 26.4055 45.824 24.2295 43.776L21.4135 41.152H20.9015C18.0002 41.152 15.3122 40.704 12.8375 39.808C10.3628 38.8693 8.22949 37.5253 6.43749 35.776C4.64549 34.0267 3.23749 31.872 2.21349 29.312C1.18949 26.752 0.67749 23.8293 0.67749 20.544ZM12.1975 20.544C12.1975 24.4267 12.9868 27.328 14.5655 29.248C16.1442 31.168 18.2562 32.128 20.9015 32.128C23.5895 32.128 25.7228 31.168 27.3015 29.248C28.8802 27.328 29.6695 24.4267 29.6695 20.544C29.6695 16.704 28.8802 13.824 27.3015 11.904C25.7655 9.984 23.6535 9.024 20.9655 9.024C18.3202 9.024 16.1868 9.984 14.5655 11.904C12.9868 13.7813 12.1975 16.6613 12.1975 20.544Z" fill="#2B9F3F"/>
<path d="M68.1547 21.593C64.8694 21.593 62.3521 22.5956 60.6027 24.601C58.8534 26.6063 57.9787 29.4436 57.9787 33.113C57.9787 36.825 58.9387 39.6836 60.8587 41.689C62.8214 43.6943 65.4454 44.697 68.7307 44.697C70.4801 44.697 71.9521 44.4623 73.1467 43.993C74.3841 43.5236 75.5574 42.9903 76.6667 42.393C77.3921 42.9903 77.9467 43.7156 78.3307 44.569C78.7574 45.3796 78.9707 46.3396 78.9707 47.449C78.9707 49.1983 77.9894 50.6916 76.0267 51.929C74.1067 53.1236 71.1627 53.721 67.1947 53.721C64.3361 53.721 61.6481 53.3156 59.1307 52.505C56.6134 51.6943 54.4161 50.457 52.5387 48.793C50.6614 47.0863 49.1681 44.953 48.0587 42.393C46.9921 39.7903 46.4587 36.697 46.4587 33.113C46.4587 29.785 46.9707 26.8623 47.9947 24.345C49.0614 21.785 50.4907 19.6303 52.2827 17.881C54.1174 16.1316 56.2507 14.809 58.6827 13.913C61.1147 13.017 63.7174 12.569 66.4907 12.569C70.4161 12.569 73.4454 13.209 75.5787 14.489C77.7547 15.769 78.8427 17.4116 78.8427 19.417C78.8427 20.5263 78.5654 21.4863 78.0107 22.297C77.4561 23.1076 76.8161 23.7476 76.0907 24.217C74.9814 23.4916 73.7867 22.873 72.5067 22.361C71.2694 21.849 69.8187 21.593 68.1547 21.593Z" fill="#91C945"/>
</svg>
